<mxfile host="app.diagrams.net" modified="2023-01-10T20:16:57.457Z" agent="5.0 (Windows NT 10.0; Win64; x64) AppleWebKit/537.36 (KHTML, like Gecko) Chrome/108.0.0.0 Safari/537.36" etag="xtSluSFtKfaNgDi8GZS3" version="20.6.0" type="github">
  <diagram id="ME20izCxHjvBQEnIVciS" name="Página-1">
    <mxGraphModel dx="1220" dy="1939" grid="1" gridSize="10" guides="1" tooltips="1" connect="1" arrows="1" fold="1" page="1" pageScale="1" pageWidth="1169" pageHeight="827" math="0" shadow="0">
      <root>
        <mxCell id="0" />
        <mxCell id="1" parent="0" />
        <mxCell id="aBZuQ9AUU6MUSOwiELfQ-1" value="a" style="sketch=0;outlineConnect=0;gradientColor=none;html=1;whiteSpace=wrap;fontSize=12;fontStyle=0;shape=mxgraph.aws4.group;grIcon=mxgraph.aws4.group_aws_cloud;strokeColor=#858B94;fillColor=none;verticalAlign=top;align=left;spacingLeft=30;fontColor=#858B94;dashed=0;" vertex="1" parent="1">
          <mxGeometry x="493" y="-170" width="627" height="560" as="geometry" />
        </mxCell>
        <mxCell id="aBZuQ9AUU6MUSOwiELfQ-72" style="edgeStyle=orthogonalEdgeStyle;rounded=0;orthogonalLoop=1;jettySize=auto;html=1;" edge="1" parent="1" source="aBZuQ9AUU6MUSOwiELfQ-4" target="aBZuQ9AUU6MUSOwiELfQ-71">
          <mxGeometry relative="1" as="geometry" />
        </mxCell>
        <mxCell id="aBZuQ9AUU6MUSOwiELfQ-4" value="&lt;font style=&quot;font-size: 10px;&quot;&gt;ORQUESTA-EPA &lt;br&gt;MAP&lt;br&gt;&lt;/font&gt;" style="sketch=0;points=[[0,0,0],[0.25,0,0],[0.5,0,0],[0.75,0,0],[1,0,0],[0,1,0],[0.25,1,0],[0.5,1,0],[0.75,1,0],[1,1,0],[0,0.25,0],[0,0.5,0],[0,0.75,0],[1,0.25,0],[1,0.5,0],[1,0.75,0]];outlineConnect=0;fontColor=#232F3E;gradientColor=#F78E04;gradientDirection=north;fillColor=#D05C17;strokeColor=#ffffff;dashed=0;verticalLabelPosition=bottom;verticalAlign=top;align=center;html=1;fontSize=12;fontStyle=0;aspect=fixed;shape=mxgraph.aws4.resourceIcon;resIcon=mxgraph.aws4.lambda;" vertex="1" parent="1">
          <mxGeometry x="853" y="-60" width="40" height="40" as="geometry" />
        </mxCell>
        <mxCell id="aBZuQ9AUU6MUSOwiELfQ-5" value="AWS Account - CallCenter_Prod" style="points=[[0,0],[0.25,0],[0.5,0],[0.75,0],[1,0],[1,0.25],[1,0.5],[1,0.75],[1,1],[0.75,1],[0.5,1],[0.25,1],[0,1],[0,0.75],[0,0.5],[0,0.25]];outlineConnect=0;gradientColor=none;html=1;whiteSpace=wrap;fontSize=12;fontStyle=0;container=1;pointerEvents=0;collapsible=0;recursiveResize=0;shape=mxgraph.aws4.group;grIcon=mxgraph.aws4.group_account;strokeColor=#CD2264;fillColor=none;verticalAlign=top;align=left;spacingLeft=30;fontColor=#CD2264;dashed=0;" vertex="1" parent="1">
          <mxGeometry x="543" y="-140" width="557" height="500" as="geometry" />
        </mxCell>
        <mxCell id="aBZuQ9AUU6MUSOwiELfQ-7" value="Data Encuesta" style="outlineConnect=0;dashed=0;verticalLabelPosition=bottom;verticalAlign=top;align=center;html=1;shape=mxgraph.aws3.dynamo_db;fillColor=#2E73B8;gradientColor=none;" vertex="1" parent="aBZuQ9AUU6MUSOwiELfQ-5">
          <mxGeometry x="67" y="180" width="40" height="50" as="geometry" />
        </mxCell>
        <mxCell id="aBZuQ9AUU6MUSOwiELfQ-8" style="edgeStyle=orthogonalEdgeStyle;rounded=0;orthogonalLoop=1;jettySize=auto;html=1;entryX=0.5;entryY=1;entryDx=0;entryDy=0;entryPerimeter=0;" edge="1" parent="aBZuQ9AUU6MUSOwiELfQ-5" source="aBZuQ9AUU6MUSOwiELfQ-9" target="aBZuQ9AUU6MUSOwiELfQ-7">
          <mxGeometry relative="1" as="geometry" />
        </mxCell>
        <mxCell id="aBZuQ9AUU6MUSOwiELfQ-9" value="&lt;font style=&quot;font-size: 10px;&quot;&gt;Genera datos de consulta&lt;br&gt;Encuesta&lt;br&gt;&lt;/font&gt;" style="sketch=0;points=[[0,0,0],[0.25,0,0],[0.5,0,0],[0.75,0,0],[1,0,0],[0,1,0],[0.25,1,0],[0.5,1,0],[0.75,1,0],[1,1,0],[0,0.25,0],[0,0.5,0],[0,0.75,0],[1,0.25,0],[1,0.5,0],[1,0.75,0]];outlineConnect=0;fontColor=#232F3E;gradientColor=#F78E04;gradientDirection=north;fillColor=#D05C17;strokeColor=#ffffff;dashed=0;verticalLabelPosition=bottom;verticalAlign=top;align=center;html=1;fontSize=12;fontStyle=0;aspect=fixed;shape=mxgraph.aws4.resourceIcon;resIcon=mxgraph.aws4.lambda;" vertex="1" parent="aBZuQ9AUU6MUSOwiELfQ-5">
          <mxGeometry x="67" y="284" width="40" height="40" as="geometry" />
        </mxCell>
        <mxCell id="aBZuQ9AUU6MUSOwiELfQ-10" style="edgeStyle=orthogonalEdgeStyle;rounded=0;orthogonalLoop=1;jettySize=auto;html=1;entryX=1;entryY=0.5;entryDx=0;entryDy=0;entryPerimeter=0;" edge="1" parent="aBZuQ9AUU6MUSOwiELfQ-5" source="aBZuQ9AUU6MUSOwiELfQ-12" target="aBZuQ9AUU6MUSOwiELfQ-9">
          <mxGeometry relative="1" as="geometry" />
        </mxCell>
        <mxCell id="aBZuQ9AUU6MUSOwiELfQ-11" value="Securitzación ApiKey &lt;br&gt;o Cognito" style="edgeLabel;html=1;align=center;verticalAlign=middle;resizable=0;points=[];" vertex="1" connectable="0" parent="aBZuQ9AUU6MUSOwiELfQ-10">
          <mxGeometry x="-0.1765" relative="1" as="geometry">
            <mxPoint as="offset" />
          </mxGeometry>
        </mxCell>
        <mxCell id="aBZuQ9AUU6MUSOwiELfQ-12" value="API Consulta Datos" style="sketch=0;points=[[0,0,0],[0.25,0,0],[0.5,0,0],[0.75,0,0],[1,0,0],[0,1,0],[0.25,1,0],[0.5,1,0],[0.75,1,0],[1,1,0],[0,0.25,0],[0,0.5,0],[0,0.75,0],[1,0.25,0],[1,0.5,0],[1,0.75,0]];outlineConnect=0;fontColor=#232F3E;gradientColor=#945DF2;gradientDirection=north;fillColor=#5A30B5;strokeColor=#ffffff;dashed=0;verticalLabelPosition=bottom;verticalAlign=top;align=center;html=1;fontSize=12;fontStyle=0;aspect=fixed;shape=mxgraph.aws4.resourceIcon;resIcon=mxgraph.aws4.api_gateway;" vertex="1" parent="aBZuQ9AUU6MUSOwiELfQ-5">
          <mxGeometry x="272" y="420" width="48" height="48" as="geometry" />
        </mxCell>
        <mxCell id="aBZuQ9AUU6MUSOwiELfQ-71" value="SQS Encuesta" style="sketch=0;points=[[0,0,0],[0.25,0,0],[0.5,0,0],[0.75,0,0],[1,0,0],[0,1,0],[0.25,1,0],[0.5,1,0],[0.75,1,0],[1,1,0],[0,0.25,0],[0,0.5,0],[0,0.75,0],[1,0.25,0],[1,0.5,0],[1,0.75,0]];outlineConnect=0;fontColor=#232F3E;gradientColor=#FF4F8B;gradientDirection=north;fillColor=#BC1356;strokeColor=#ffffff;dashed=0;verticalLabelPosition=bottom;verticalAlign=top;align=center;html=1;fontSize=12;fontStyle=0;aspect=fixed;shape=mxgraph.aws4.resourceIcon;resIcon=mxgraph.aws4.sqs;" vertex="1" parent="aBZuQ9AUU6MUSOwiELfQ-5">
          <mxGeometry x="306" y="200" width="49" height="49" as="geometry" />
        </mxCell>
        <mxCell id="aBZuQ9AUU6MUSOwiELfQ-78" value="S3 DATA&lt;br&gt;EAT" style="sketch=0;points=[[0,0,0],[0.25,0,0],[0.5,0,0],[0.75,0,0],[1,0,0],[0,1,0],[0.25,1,0],[0.5,1,0],[0.75,1,0],[1,1,0],[0,0.25,0],[0,0.5,0],[0,0.75,0],[1,0.25,0],[1,0.5,0],[1,0.75,0]];outlineConnect=0;fontColor=#232F3E;gradientColor=#60A337;gradientDirection=north;fillColor=#277116;strokeColor=#ffffff;dashed=0;verticalLabelPosition=bottom;verticalAlign=top;align=center;html=1;fontSize=12;fontStyle=0;aspect=fixed;shape=mxgraph.aws4.resourceIcon;resIcon=mxgraph.aws4.s3;" vertex="1" parent="aBZuQ9AUU6MUSOwiELfQ-5">
          <mxGeometry x="467" y="79" width="43" height="43" as="geometry" />
        </mxCell>
        <mxCell id="aBZuQ9AUU6MUSOwiELfQ-73" value="&lt;font style=&quot;font-size: 10px;&quot;&gt;LANZA-ENCUESTA&lt;br&gt;MAP&lt;br&gt;&lt;/font&gt;" style="sketch=0;points=[[0,0,0],[0.25,0,0],[0.5,0,0],[0.75,0,0],[1,0,0],[0,1,0],[0.25,1,0],[0.5,1,0],[0.75,1,0],[1,1,0],[0,0.25,0],[0,0.5,0],[0,0.75,0],[1,0.25,0],[1,0.5,0],[1,0.75,0]];outlineConnect=0;fontColor=#232F3E;gradientColor=#F78E04;gradientDirection=north;fillColor=#D05C17;strokeColor=#ffffff;dashed=0;verticalLabelPosition=bottom;verticalAlign=top;align=center;html=1;fontSize=12;fontStyle=0;aspect=fixed;shape=mxgraph.aws4.resourceIcon;resIcon=mxgraph.aws4.lambda;" vertex="1" parent="aBZuQ9AUU6MUSOwiELfQ-5">
          <mxGeometry x="312.25" y="340" width="36.5" height="36.5" as="geometry" />
        </mxCell>
        <mxCell id="aBZuQ9AUU6MUSOwiELfQ-76" style="edgeStyle=orthogonalEdgeStyle;rounded=0;orthogonalLoop=1;jettySize=auto;html=1;" edge="1" parent="aBZuQ9AUU6MUSOwiELfQ-5" source="aBZuQ9AUU6MUSOwiELfQ-71" target="aBZuQ9AUU6MUSOwiELfQ-73">
          <mxGeometry relative="1" as="geometry" />
        </mxCell>
        <mxCell id="aBZuQ9AUU6MUSOwiELfQ-13" value="" style="swimlane;startSize=0;fontSize=10;" vertex="1" parent="1">
          <mxGeometry x="152" y="-740" width="845" height="560" as="geometry" />
        </mxCell>
        <mxCell id="aBZuQ9AUU6MUSOwiELfQ-14" value="" style="shape=image;verticalLabelPosition=bottom;labelBackgroundColor=default;verticalAlign=top;aspect=fixed;imageAspect=0;image=data:image/png,iVBORw0KGgoAAAANSUhEUgAAAPQAAAA9CAYAAACayESCAAAgAElEQVR4nO2deXBVV3rgf/fe9+59i1aENrQB2hASYt+EzWZWY8A2q8HuTCfpJJWk3eNJd2pqpmo6qepkMqmpSXU66Z4knU672za7MTZms7ExSOwIhEAS2iWEVrQ9SW+/984fD9TYaHvvgehm3q+KEird+53v3nu+s3znO98RbDabTogQIZ4LxGetQIgQIZ4cIYMOEeI5ImTQIUI8R4QMOkSI54iQQYcI8RwRMugQIZ4jQgYdIsRzRMigQ4R4jjA8k1Lb76GVXUcY6EO3hqPnzkOKTXgmqoQI8TwhjHekmHbqIOLZX6P39CC4PeiyEaInoK/6Q8RlG8ZTlRAhnjvGt4e+ehbhwP9C72pD8PajGyMRPL3QFgnNP0KLSUDMmzuuKoUI8Twxvj3095ajN9UiGK2w/c8hcSp6XSkc+QW47JC7BOFv9oybOiFCPG+MXw/d0Qy1xQhyJNrSLYhrvwXWcJi+AOpqEIqPwe0v0Pu6EcKjx02tECGeJ8bPyz3Q5/upedDTcn3GDAiRMejJ2aB5wOFAdzrGTaUQIZ43xs2gPVFxAOiSGeHip9DR4vu9qQah+FN0yYxuigz1ziFCBMG4DbnF8Ei0hVsRr34K1cXws3fQJ6RAew1CSwM47Ggb/wjRZB4vlUKEeO4YN4OWJBF91w/Q+20IFefg2mkEgwm8TlAl9NmrETZ/Z7zUCRHiuWTc16Epu45++RNoqAH7AHp4JOKUHFiwFjJnjKsqIUI8b4y/QQN6dwdCRwu62w0mM0JCMoRFjrcaIUI8dwQ85Nb7e6GnC8Hr8fteISwC0jIRlKc/X25qaqa5pZnWllZ6+3ye9sjwcGJiJhAfH8/kyWkYDP6/hoaGhiemY1JS0pA62O0OOjraB3+PjY3DYgnunVVX12A0GkaV19nZSX9/f1BlPSQsLIyYmJgxXTvS90pOTiItLW3U+1XVVyc9Hi8ZGenBKf+Ab36L0Z6ps7OTxrt3aWtrZ6Dfjt3pwGIyExs7gfiEBFKSU4Z999XVNQAYjQZkWSY2NhaA1tZ2kpMnjain3zVZu3MT4cpJaLkDzn7wqv6KAJMFzBb0vNWw6CWEp9A7X79RwsWLl2jvuE9frw1bnw2HwwmA2WzCarUQZg1nYmwsc2bPYPHixX4Z9nvvf4Db7UFACEpPu8PB9//iHeLiYh/7W09PD//803/BYjajaTr5+Xls3fp6UOX95Cc/Izo6ErvDwZtv7iJ/Rt6Q1126dJmioksYjVJQ5Xk8KqtWLWPFihUjXldeXkFh0XmaW1qH/V6REZHEJ8SzfNlScnKmDSmnpaWZPXsOEBERRl9/P9/61m5m5ucH9QwAH398lLKyckRRwONRefvtPx3yutbWVk5/cYaG+ga6e3rp7+/D7fLg9riRjTLh4VasYWFERUaxaNG8IeudKIoUF19j2bJlfPnlGWbNmgVAcfF1du7cPqKeY67BXq8Xw6m9CEWHoLEOwdGNrqkEOl4XRAkqy6DkBNrGP0fMCv6lA/T29nL06DGu37hJY2MjqqoiSRKapqHrPm0dDgednd0IAlBRQW1tDaWl5bzyyjpSU1PHVE5Z2R2cTieCEJxB9/TYcDiGXnv3eDwUF5cQFRWBpuk03m1k8eJFJCWN3EqPxPXrpcTFT8Bm62PjKy8Pe11rays3b5aimOSAywJwOJzMyJ8+7N+9Xi8nTpyisOgCDQ0NuN3uIb9XT08vd+/eo6y8goaGuxQsXsCmTRsfk5eSkkxXVyd19fWoqpc9e/aTO316QKOwhzQ2NvLpp8cZsNvxeNwULF5EVNTjndDVq9c4ceIUdyqrGBiw+xzBuj74HHbs9Np6AdA0nbtNdykvr2THjq1ERv5GXlLSJAqLioiNjcXucFJbVwdA3xhGTGN/yk9+Dcf+BaG7BXQdBBF9Uh5iAC241tOG0HMP2hsQ2uuh7T76n/wIYerwH34sdHV18R+//DXXr9/A6XQiSRKqVyUiIpz4+ATCwy1IkpGBgX4673fT3NqCQTLQ0tJKU1Mz7e1tvPXWbtLTp45altEgocmPVHY9MMOWjSN/AtlowGg0AmCz9bN//0HeeeftgMoCUBQZo9GIosiI4vBhCKIoYnikbCCgZ/QaRx7BHT36KZ8cPU5PTw+yUXnsewH09dlpa2ulu6cXRZKoqqqiva0NTYNXX/26USckJLB7907+6Z9+htVqpaKikqKi8yxbttRv3R+yf/9BBux2jEYDFouZXbt2oijK1665UVLC++/voaGxCaPRgCAIGCQjScmJREdHIklG+vv76Orsobm1BUWWaWlppa2tHYfDwXe+8weDQ3BFUZAf1C2r1Tc6AwgPDxtV17EZ9M0rSEd+DPY+UD3oWYsRClYjxGeCwf/YFKG/B73qKnrRSXD0I1ReRX/3h/Dffw2yyW954JvjvPfeHoqKLmA0GtB1iJkwgTlzZpOeMZWYCTGYLSYkScJhd9Bn66Omro7i4mJqautRZJmbpbf55S9/zTvvfJcJEyaMqVy320NBwSJm5OXh9Xr91tvtdo+5LEWRKTp/kaVLX2Du3Dl+lxUImqYRO3Eimza/gtfj//RKVVUyMoZuIEtLb/HRkY8ZGHD4elBBZ82aVeRMnzb4vQAcdiedXZ1UVFRw5sw5DAYDff39fPTREVJSkh57F0uWFHD69Bmqa2qRZSMHDn7IjBl5Y37Pj1JScpOLl66iKDL2ATubN20kLe3ro7iuri7e+7XPmBVFxul0sWDBXGbmzyRxUjxhYWGP1buiwvO0tXcginCusIhJiYls275lUObDaUJebt6gIff1PYEe2utVkQ78GGwdIBrRpy9B2P59mD4bwRjYcEwA9BmLEVJz0X/1t4AF4caXaFfPIRasDkjml2fOcPZcEUajAY/Hw7RpWbyyYQM5OdlERw8dfTYjP4+cnGxOnz5DUeF5zBYzpaW3OPThEb7zh98eU7ler5esrAzWrHkJVQ3AnwBI0thHObqus2fPPjIy0r82THtaaJpGeFg4a1avCvj5hsLrVTl46CP6+gaQZRlN09i+bQtLliwmLi5uyHtyp+eQEJ/AwUOH0TSNvv4BPtizl+nTczCbf+NgslgsvPHGNn74V3+D2Wyi6V4zx4+fYvfunX7p6HA42LvvALquo2kakyZNYu3ax+vnZ59/QVVVNRarBYfdwZq1q1i7dg2T01KH/LYz8vOYMnkyBw8dorHxHqIocvTYMebOm8PUqVMAyMrKHPz5UMZY3v/o3WtrI0Lp52CwohsVhF3/FWYuhACN+SFCTALCyq2w7HUEVw+6MQzhk58HJKurq5sjHx9FFAV0XSc1NYVdb+ygoGDRsMYMYLVamTN7Njt3bGPmrHzcbg+KSeHz019QXVPjtx6SJAX0b6xomoYsG6mprefUqc/81i9YAn2+oZ6xqamJ0pu3kGUZl8vFSyuXs379umGNGSAuLo7169exaeMGHHYHsmykqqqG6zdKHrs2Ly+PF18owOVyocgyp05+Rt2DuehYKSy8QEVFJbJsxOlwsn37FmJivt7LOxwOTp78HMWkoKoq2dmZbN3yGulTpwz7ba1WKwUFi9i9excGg+/99Nr6+Pjop4PXPLz3URljqSujGrRUfRtUO4LqRMtaDLlPcL+yUUZYu9sn32BGuH0O3E6/xVy5coW2ljYkScLr9fLGzh3k5Q3tvR2KlJRkdu3agdnsG+K5XC5Of/6F33o8TVRVZdq0LNxuD7Js5NjxE9TV1T9rtQLm1q1SNN3X4xgMBjZv3ojJpIxyF5hMCi+/vI7UtFRUVcVgMHL69OPfSpIktm3bMthz9w30c+jQ4THr19XVzeHDRzAYDLjdHnJzc1i8eNFj17W1tdPR0Y4kSbhcbjZt2jBio/Qoc+fM5sUXlww2OhfOX8Jms41Zx6EY1aD19mYQZdDciNkLgipsKIRJU0CO8nkC7f3odv/XPr888xWyouD1epmWncW8ef7PL7OzsnjxxQJcLrfv5V64NKz3+VngcrnY+MoGYh7MA3sfOMi8gSwb/hZQWVWDwWBA0zQmT04lPj5+zPeGh4ezYvmL2AfsgM7Vq8VDfqvU1BTWrV2D0+FEURSuXCkesjcfipMnP6O5uRmDQULXdXbv3jlkg9Pc3IIo/MaMHi4xjZUNG17G7Xbj9ar0dPdSU1Pr1/3fZFSDFkQBHi5OeVxBFTYkuga6+pvlHz+XgWw2G9XVtRgMEi6Xi+XLl/o1jH2UFcuX4/G4UVWV1rYOGhoaA5LzNPB4PKSmprJ50yu+CirLXLl6jWvXrj1r1QKip6cHQRBQVZXEhES/71+wYD5z581l3rw55M3IHdZhtH79WhISE1BVFVXT2Lt3/6gNdX19AydPnEIxKbhcLpYULCI3N3fIa+12+2CdFUURq9Xq13OkJCexaPECZs/OZ9HiBbjd/gdqPcroXu6EFN9eZTkSofQsXu/bGAzBBRs8il5TjuDpQzeGI1gjESzhft3f3NyMy+XCaDQiIJCTkxOwLqmpKSxauBDJIOB0enD+Nu3N1sHr9bB8xVLOFRZSXVMLCOzbd4CcnGlEREQ8aw39Qnlkyc/ldvt9/8PlKUkUUTUNq9Uy5HUTJ8awbdvr/OQnP8VisVBZWc3Zs4VDOrcecujDw9j6+jDKRiwW64jBPJL0mz7x4XqzP0iSxBs7dqBqGgDRUVF+y3iU0Z1i2fkgR6KLMjTcgMITQRX4KPqADT76qa+xcPeizVntt7Oto+P+4P9lRQloaeIhJpOJN3ZtZ/v2bbz55k5SUlIClvW0sFqt7Ny5HUmSMBoN1NTWc+Tjo89aLb+JjYsdDPoJJIxWkiSyMjNIT59KVmbGiD3jC0sKmJGfh8fjwWg0cPjIx7S3tw95bUlJCZcuXUExKTgdTtatW/3YMtWjRERGoD3wPquad1i5I/HwGbIyM4iNnej3/Y8y+pA7dhL6kq0I7l5AQPrwx/DFh+gPM5AEiN5YCfv+Ea5/hW6wguZBffWP/JbjcrkH5zAmRR6TY2UkMtLTyUhPJyszc8zxx+PNjBl5rFyxFKfDicmkcOz4yd85B1lmRgYetwdRFGlrax+MX34amEwmtm/bOuhxb21p5ZOjxx67zuFw8MGe/WiajqqqpKQks37dmhFlJyclP5iWgiRKnDlz9qk8w1gZW2DJ63+CVluM2FyN0FINB/4Bqi6ix6SBafTolW8i2Hug5jrcuOj73d2LvuY/IebN91uWT8CDFyqJAc+ff5eQJIlNmzZy7VoJPb09uJxO9uzdx1/+4PtPdDr0NJk2bRomk29VQRQlPtizj7e/+6dEBTnkHI7c6Tm8+IIv4ERRFE6fPsPyZUu/FhVYWHieiopKLBYzLpeLLVteHbVRnzgxhilTptDS0oKiKJz67DT5+TOYNi37qTzHaIzJoIXJ2ei7/hv6gf+DUHsbvaMR4VQduhIJJv/mvAA4bODsQUAHUUZfsQ22vfM7a4xGg3H0i54wiYmJbNq8gX/713/HYrVy+bLPQbZw4ZNfiXgaxMXFUlCwiLNnCzGZTZSU3GTPnv2sXLmc9PT0J94wSZLEq69uori4hAH7AC6Xk/37D/KDH/wFBoNER0cHHx4+gizLeDweZs6ayaJFjy9TDSV3w8tr+ed//r9YrFa6urrYs3c/69etZebMGV8LeBkPxhzLLRasBYOCfu4QenUZQtsdBEcXOLr8L1WT0MMmwKQpCLMKYPVbCHFJ/sv5LUAQBAYGBrh///7oF38DRVEIDw+gQXzA8mVLKSq6QFVVNUajgX379pOdnT3kxoFgcLqcAT0fwMSJQ88JHxpYWVkF3T3dyLLM6S/O0NrWRk7ONOLjYklNTSUuLjaod/QoycnJbNiwnl/96j0sVgtXrl7jxo0bzJs3l6OfHqe5uQWLxYyuiezYvmUwLmE0CgoWU3T+IjdLSjGZTdy6dZs+Wx9lZeWkpqQwKXkSkxITCQsLe+ojKP+2oCxYDmkZCLevwN0SNPsAYgCePV2UEeLTYHIu5M5HkIOb9/pDW1s7qjq2mGtZloetkA8xGg1cuXqNpnv3/NJD9WrMmZPP8uXL/brvUcLCwti1awc/+tHfIYoiNTX1HP30OG/6GeI4EqIo0tXdxQd79vnnxdV9S55vf/fPhr1kypTJ7Nq9g737DtDe3oFJUSgtvU1lZRXR0dEkJ01iwoRokpKSiIuLIyUliejo6KB6vZdeWsFXX52jta0VUZQ4eOgwisk3BDc9cIStXr2SadljHzI//A6qqnL7VhmyInO3qYnGu03ETIgmITGBuNg4JsbGkJw0icTERBITE55K7+33njIhPhnik8H9MjgGfOvI/iIrfi9PPSmOHPkYm60PURx5vVvTdLKyMobcovcoBoOBmppa7lRW+aWH2+UmMjIsKIMGmJGXx7KlL/DZ519iMps4dvwESwoWMWXK5KDkPkQURZxOF2fOnEP3Z7OspiOI4ogGDbBi+TLQdQqLLlBWVo6u+xxSHR0dtLe3o3pVwiPCiI2NJWlSIlHR0UzLziI/fwZhYf77b6KiInn99c38409+iqLI1NTUsn//IZxOB5IkMWFCNK++uslvudlZWezatZNTJz/j+o0b2Gz9GAwSXd3ddHZ1cdPr673j4mJJiI8nLi6eKVNSycvLG3IvfKAEvklUVhBH6FlVVUXShu4JBeP49cjf5OLFS3R2diONsj9W9XoQxzinF0UReYStiEOhqdoT8xls3ryR4uIS+vr7cDgc7Nt/kO+9/edjHjKOhiiKg1lOxoqm6RjG+HwrViwnNTWV4uLr1NbW0dnZSdM9X3yBZDDgcDhpbLxLXV0DOjolJTe5des2q1evCqjhWrhwPjPO5HLr1m1kWaai4g5GoxG73cH2bVuYNCmw/ebTc6YROzGGqelTaWxopKW1laamJgYGHAiigNer0tLSyr17zahelbi4OG7evM2SJYuZP//JhFQ/0ayfmq0bofo2NN1B7+8A9zBhiRYZPW4aTM5CmDy+3kCD0YjBaBxyL7Ag/CYA3i2Mzdnl9ark5uWQke5fqhuPx0tubuBBMI+SlJTEa69v5l//9d+xWMxcuXKVK1eusXTpkqBla5pGdFQ0L7xY4Od9ul/zxfT0qaSnT+XevXs0N7fQ0NBIR8d9Ojs76bh/n+bmVoQH36S5uYXGhrt0dNxn67bXyc7K8ks3s9nM9u1bKS+rAHyjLFVVmToljZdeGjmzymjExsayaeMGenp6fI1QfQMd7R10dnXS2tpGa2sbqqpilI309Pbw1VdnaWhswG4fCGrP9kOemEHrt67CucPodWVwrwqDoxuGm6oaQE/IQUhNQ5+1EpZtRjD7P3wKhPXr1jIwYB/yb4IgUFR0ns6usTv6PB4Ps2bN5JWXh8/+MR6sXLGMwsLzVFZWIkkShz/6iNzcaUGvpfsMOoqdO0ZOffOkSEpKIikpifnz59HX10dbWzvNzc00NjbR3tFB5Z07tHfcx2Q2cfVqMW6Ph7e/+6d+P2fu9BwKChZy9lwRiqLgcrrYvn3rE1s2i4qKIioqivz8GQ8y5HTS2NhE4927dHV2UVtXR01NHSaziYaGu7z3/h6io6PJzw8u8+2TMejic+iHfoxYegGMErrmBU1i2HRbAgjtVQit5WgVNxDaatC3/5dxMerXXts84t8rKsrp8MOjq+s6kig+8/Vfs9nM7t07+eu//hGCIFBbV8+x4yd4683dT0T+s3i+8PBwwsPDBxP9tbe3c+NGCV+dK6T8dgUms4kb10s4fuIUb+5+w2/5L7ywhM9Pf+kzaJeH+fMDjIMYBbPZTHJyMsnJyRSwCJvNRkVFBefPX+bsuXMoisL9+53s2buPrKzMwfX5QAjaoPW7NfD+3yHW3QBFQQuPQ5iWB1HDz0N0bz801EL1NQR7H8JHP0OzRCNs+26w6vx/TV7udFauWM7JU59hUhSOnzjFwoULycrMeNaqPRHi4uJYs2Y1ySnJ/PzffsHdpmafI/DYSV5ev9bvsF9FMQ1uClJVbdwarYiICBYsWEBmZhYut4vLl69gMpm4fbucsvIK5sz2b8fWowRv0Pt/7DNmSUGLS4G1vwfzV0HiCMn2BmzoFSXw+X/AxZPociTCgX9An7sKYWrg80odfTA+OFAe5m8CMASQXulZs2XLq9y4eZPurm6cDif79x/g+3/xTlCt/m8b03Ny2LFjG//z7/43ZrOJPpuNW7dus3Tpi89aNb+Ijo7iW2/tpqK8ArvDl4apqPB8UAYdVI3V77cgnv0A5AhAQ33tu4ibfh9hJGMGBGsE4twX4Vt/hZAzH0HzILjtaEff9VsHRZF9SQsBt9uL0xncFs8+Wz+iKKJpOuYgc2A/C+Li4nh180ZUVUVRFK5du8758xeetVpfw2bro/BcERcuXKKo6DxOp/9JLebOncuE6Gg0TcNgNFBxp/IpaDoyqqpy4cIlLly4ROG5Itra2vyWkZiYwJw5s/F4vBiNRirKK4NK9RScQZdeAnR0rwM9bTbC8tf8ul9ITIXtfwnuXnQlCvH8x37rEBs7EfVB5gu73U53d7ffMh7idLro6LzvM2hVDWrn1rNk+bKl5OfPwO32YDT6kuTdv9/5rNUaxGbr5ZfvvscHe/bx7rvv0dPT67cMg0EiMzN9cETW1ur/Lqdg0XXYf+AA73+wl3d/9T5l5eUByZmWk43q9T4I4ukOKmlFcAZdVwWiEcHTjzZvTWBzkOlzQJIRRBHhfhO6Y8Cv2+Pj4zE8WF7Sdd3vvFGP0trait3u2wOtqippqb992yfHgtlsZueObciyjCAItLS28emnx5+1WoNYrdbBwJGWllbuNjUFJCc83Iqu6wiCgMv1FJJvjILBIOF2u2ltbaWzs4s7FYGNEkyK4l/QzggEZdDCYNpaHTE6wH2csgkMjwxtXf4lFQgPjyA1JRlVVZFlhcLCooCHLJcuXUYQfEs1VmsYkyc/mWirZ0F2dhYrVy7H5XZjNpk4ceIUNbV1yPK4HTg6LOHhEYPHu8iKwtmz5wKS09LaNpjMPjLy2SR4yM7ORtP0B9ObGwwM+NchgS97iyj6OkNZNgTlAwrOoKNjQPOCwQp1twOSoXe2gevBkMsAgsW/pSuDQWLJkgJcThdGo4Hi6yWUl1f4rUdLS8vg1jq328OsOfnjkib3abLl9c0kJ03C6/Xi9ng4ePDD3wq/gMEgMXfu7MGEh1cuX6XJz166r6+fhoa7SJIBr9fL5MljO/HkSTNv3hy8Xg8IOu0d7Vy4cMlvGaWlpYPBLXHxsUF524Nz4+bMBrcb3WBBv/wJeutdv0Xopw+CIIHqQk+fFVCi/ReWFBAREYGmaWiazr79B/yqID09PRw69BEd9+8PRpCNtrH9d4EJEyawbevraJqOLBspLr7+TLZ6DsWKFcseOB81XG4P+/YdpKtr7P6Pc+cKBw/T0zSNaUGkngqG3OnTiYuPQ9NUTCYThz/62K9kDdXVvmOYjEYDLreb2bNmBqVPcD105gz0xFwE3YPY3QyHfox+b2xzWN1hR7/8JcKJd9GVaLD3om0O7IiXpKRJrF+3ZrDFL71Vxr59hygtvT3i3EpVNapravjww484/YVvt43L5WbhgrnkDZMUbigM0rMfxg7HkiUFzJqV78vsIoogjPvpwUOSkZHOwoXzcLncmEwKZ88VcejQR9TVj5x5xeVycenSFT755BjKg0yvkyenkT519OOLngaRkZFs3vQKbrfPqdXc3MIHe/dRUlIyat0rKyvng737cHs8aJqGIsu88EJw4brB1UTFBNv+M/z8B6BEIXz+PrrXgz5nFcQkI0jDtBcDvVBbjH7mJKKtHdAhY0HAp2YAbHhlPZVVVZSU3MJsNnH2XCEd9+8zf95cJk9JIyZmAibF1/u73S66u3u4d6+F6zeKuXy5GIvFjNvlfpCje+eYDzczGAzU1zdwrvB8QHqrXg/z5s0NaOfQWDAYDOzYvpXKiircXveI51kNhSiK9PX3B/x8uq6RmprC5G8cA2swGNi5YxuNDXdpaW3FYjFz9NNjdHZ3Mnf2bBITE4mKihz8Dk6Xk87OLurrGvjiiy/puH8fSRIREHj9tc1BH7MbDC+tXMn14htcv34Tk1mhuPgGtl4bixctIiNjKpFRkV+rezZbP41373LhwgVKb5VhNplwOJysXbtqzIclDkfQXYuwchP6nYtw+SSC0YpwZj/ajfOQlAnDzAUEWw9C3VUwhoNXR0+bivDt/xHUsbKRkZF8+9vf4uc/f5eysjIURaa6uoby8gomT04lKSmJiPAwNF3HbnfQ1tZGba2vNzCZFAYGBsjMzGDHjm1+vVRZNnL+wkWuXA0sne5A/wB///dTRjfoIA65zMrKZO3aVRw4eBiL1b+KL4oinV2d/OIXvwzopE2v18OmTa88ZtAAqampvPHGdvbs3c+9phZMJoUrl69x9UoxWZkZxCfED+7y6uvvp/leC/X1DZhMii/rlA4rVy4LulcLFovFzO/93ps4nb+gvLwCRZFpaGikqqqGrKwMJsZOJPJBkob+ATtdnV1UVlUDvuynbpebGXm5bN+2ZaRixkTwY0XFDH/wQwiLgtJzcK8KobcFoasexKENWhcMCMhgiUDPnIK+4Y8RZo6e7mU00tLS+OM//gP27TtIZVUV7e0dyLKRe/eauXevBV33zbFFUUAURSRJRPWqhFmtZGVnsfX1zcycObY5jKrpeDweBEHA6/UGFBwB0NM98hqsx+PF6/XiCTKh/isbX6aw6AIdHR2Ikoiqamja8HvZNU1DU9XBA/hsNpvfvTuAy+ka8RC/JUsKAJ1jxz6nobEOr8eLKIlUVlVxp7Lya5F7kiQiy0a8Hi+JkxKYkZfHW2/tCvioWE1TUVUNr9cbUCrhR/HVvd/ngw/2U1tXR1dnF4oiU1/fQG3t16ehgiA8qDcqUVERZGZksnPn1ieSlPKJTP6E8Cj4wx+inz2GcP0odNsmm+gAAAH6SURBVHeg9/chiMOk5DUI6JZomDITlm1GTH5y85/k5CS+970/47PPT3O9uITunm76+/sZGBjA5fJ9NKPBgNliITw8jIkxE8jKymLVqpV+7bRJTU3B5XQiBFDJH8UW0//1I1sfwWg0MjVjKhHhYdj6+pGCmKtHRUWxa9d2Pjx8BKPRiNPpxmIZOpc1+EY8U6ZOHla3seLxeEZ9r0uWLCEtbTKfn/6C+roGunt66Ovrw+1y4XkQcGEwGLBaLURFRTMxJob582ezbNmyoHQzGg2kp6djMsmERwS/yyotLY3vfe/POPXZacpu36arp5fenl4cdjueB42aosgoiomwMCvRURPIy8th3bo1I34LfxBsNtsT95LoTbXone2Iw/QAeng4xKf4GoKniN1up7KqiubmFtra2h8cneIbJk+MjSUxMYFp2VkBbZm7UTK2I1VGQ1U1cqZlD/lB7XY75RV3fCOJEa4bK16vl5KbpYPy0lJTmThx6F6hvr6ezq7uryWSDwRV1YiPiyM5eWw541paWqiurqGttY3unh7cbg+iJGK2WIiLnUhaairZ2VlBHeD+kJ6eHmpq6wbfx9w5s4OW+U3ZjY13ud/RMXgihsVqISoqKqi6NxJPxaBDhAjxbPjd204UIkSIYQkZdIgQzxEhgw4R4jkiZNAhQjxH/D/atKtr1qwtygAAAABJRU5ErkJggg==;" vertex="1" parent="aBZuQ9AUU6MUSOwiELfQ-13">
          <mxGeometry x="17.28" y="10" width="80" height="20" as="geometry" />
        </mxCell>
        <mxCell id="aBZuQ9AUU6MUSOwiELfQ-15" value="" style="swimlane;startSize=0;fontSize=10;" vertex="1" parent="aBZuQ9AUU6MUSOwiELfQ-13">
          <mxGeometry x="30" y="50" width="480" height="150" as="geometry">
            <mxRectangle x="35" y="50" width="50" height="40" as="alternateBounds" />
          </mxGeometry>
        </mxCell>
        <mxCell id="aBZuQ9AUU6MUSOwiELfQ-16" value="&lt;p data-pm-slice=&quot;1 1 [&amp;quot;bulletList&amp;quot;,null,&amp;quot;listItem&amp;quot;,null]&quot;&gt;229704600&lt;/p&gt;" style="text;strokeColor=none;fillColor=none;html=1;fontSize=12;fontStyle=1;verticalAlign=middle;align=center;" vertex="1" parent="aBZuQ9AUU6MUSOwiELfQ-15">
          <mxGeometry x="27.5" y="10" width="47.72" height="20" as="geometry" />
        </mxCell>
        <mxCell id="aBZuQ9AUU6MUSOwiELfQ-18" value="Menu Opciones" style="shape=process;whiteSpace=wrap;html=1;backgroundOutline=1;fontSize=12;" vertex="1" parent="aBZuQ9AUU6MUSOwiELfQ-15">
          <mxGeometry x="47.5" y="57" width="162.5" height="30" as="geometry" />
        </mxCell>
        <mxCell id="aBZuQ9AUU6MUSOwiELfQ-29" value="" style="swimlane;startSize=0;fontSize=11;" vertex="1" parent="aBZuQ9AUU6MUSOwiELfQ-13">
          <mxGeometry x="35" y="328" width="785" height="170" as="geometry" />
        </mxCell>
        <mxCell id="aBZuQ9AUU6MUSOwiELfQ-30" style="edgeStyle=orthogonalEdgeStyle;rounded=0;orthogonalLoop=1;jettySize=auto;html=1;fontSize=11;" edge="1" parent="aBZuQ9AUU6MUSOwiELfQ-29" source="aBZuQ9AUU6MUSOwiELfQ-31" target="aBZuQ9AUU6MUSOwiELfQ-33">
          <mxGeometry relative="1" as="geometry" />
        </mxCell>
        <mxCell id="aBZuQ9AUU6MUSOwiELfQ-31" value="Pregunta1" style="shape=process;whiteSpace=wrap;html=1;backgroundOutline=1;fontSize=11;" vertex="1" parent="aBZuQ9AUU6MUSOwiELfQ-29">
          <mxGeometry x="48" y="70" width="102" height="40" as="geometry" />
        </mxCell>
        <mxCell id="aBZuQ9AUU6MUSOwiELfQ-32" style="edgeStyle=orthogonalEdgeStyle;rounded=0;orthogonalLoop=1;jettySize=auto;html=1;fontSize=11;" edge="1" parent="aBZuQ9AUU6MUSOwiELfQ-29" source="aBZuQ9AUU6MUSOwiELfQ-33" target="aBZuQ9AUU6MUSOwiELfQ-35">
          <mxGeometry relative="1" as="geometry" />
        </mxCell>
        <mxCell id="aBZuQ9AUU6MUSOwiELfQ-33" value="Pregunta2" style="shape=process;whiteSpace=wrap;html=1;backgroundOutline=1;fontSize=11;" vertex="1" parent="aBZuQ9AUU6MUSOwiELfQ-29">
          <mxGeometry x="191" y="70" width="102" height="40" as="geometry" />
        </mxCell>
        <mxCell id="aBZuQ9AUU6MUSOwiELfQ-34" style="edgeStyle=orthogonalEdgeStyle;rounded=0;orthogonalLoop=1;jettySize=auto;html=1;fontSize=11;" edge="1" parent="aBZuQ9AUU6MUSOwiELfQ-29" source="aBZuQ9AUU6MUSOwiELfQ-35" target="aBZuQ9AUU6MUSOwiELfQ-36">
          <mxGeometry relative="1" as="geometry" />
        </mxCell>
        <mxCell id="aBZuQ9AUU6MUSOwiELfQ-35" value="Pregunta3" style="shape=process;whiteSpace=wrap;html=1;backgroundOutline=1;fontSize=11;" vertex="1" parent="aBZuQ9AUU6MUSOwiELfQ-29">
          <mxGeometry x="328" y="70" width="102" height="40" as="geometry" />
        </mxCell>
        <mxCell id="aBZuQ9AUU6MUSOwiELfQ-36" value="Guarda&lt;br&gt;Encuesta" style="ellipse;shape=cloud;whiteSpace=wrap;html=1;fontSize=10;" vertex="1" parent="aBZuQ9AUU6MUSOwiELfQ-29">
          <mxGeometry x="498" y="58.5" width="92" height="63" as="geometry" />
        </mxCell>
        <mxCell id="aBZuQ9AUU6MUSOwiELfQ-51" value="&lt;b&gt;ENCUESTA EPA MAP&lt;/b&gt;" style="text;html=1;align=center;verticalAlign=middle;resizable=0;points=[];autosize=1;strokeColor=none;fillColor=none;fontSize=11;" vertex="1" parent="aBZuQ9AUU6MUSOwiELfQ-29">
          <mxGeometry x="10" width="130" height="30" as="geometry" />
        </mxCell>
        <mxCell id="aBZuQ9AUU6MUSOwiELfQ-28" value="orquesta&lt;br&gt;Encuesta" style="ellipse;shape=cloud;whiteSpace=wrap;html=1;fontSize=10;" vertex="1" parent="aBZuQ9AUU6MUSOwiELfQ-13">
          <mxGeometry x="338" y="248.5" width="92" height="63" as="geometry" />
        </mxCell>
        <mxCell id="aBZuQ9AUU6MUSOwiELfQ-61" style="edgeStyle=orthogonalEdgeStyle;rounded=0;orthogonalLoop=1;jettySize=auto;html=1;entryX=0.489;entryY=0.071;entryDx=0;entryDy=0;entryPerimeter=0;" edge="1" parent="aBZuQ9AUU6MUSOwiELfQ-13" source="aBZuQ9AUU6MUSOwiELfQ-18" target="aBZuQ9AUU6MUSOwiELfQ-28">
          <mxGeometry relative="1" as="geometry">
            <mxPoint x="678" y="122" as="targetPoint" />
          </mxGeometry>
        </mxCell>
        <mxCell id="aBZuQ9AUU6MUSOwiELfQ-67" value="Ejecutivo MAP" style="shape=umlActor;verticalLabelPosition=bottom;verticalAlign=top;html=1;outlineConnect=0;fontSize=12;" vertex="1" parent="aBZuQ9AUU6MUSOwiELfQ-13">
          <mxGeometry x="728" y="92" width="30" height="60" as="geometry" />
        </mxCell>
        <mxCell id="aBZuQ9AUU6MUSOwiELfQ-69" style="edgeStyle=orthogonalEdgeStyle;rounded=0;orthogonalLoop=1;jettySize=auto;html=1;exitX=1;exitY=0.5;exitDx=0;exitDy=0;" edge="1" parent="aBZuQ9AUU6MUSOwiELfQ-13" source="aBZuQ9AUU6MUSOwiELfQ-18" target="aBZuQ9AUU6MUSOwiELfQ-67">
          <mxGeometry relative="1" as="geometry">
            <mxPoint x="408" y="90" as="sourcePoint" />
            <mxPoint x="550.988" y="220.97299999999996" as="targetPoint" />
          </mxGeometry>
        </mxCell>
        <mxCell id="aBZuQ9AUU6MUSOwiELfQ-37" style="edgeStyle=orthogonalEdgeStyle;rounded=0;orthogonalLoop=1;jettySize=auto;html=1;entryX=0;entryY=0.25;entryDx=0;entryDy=0;fontSize=12;" edge="1" parent="1" source="aBZuQ9AUU6MUSOwiELfQ-38" target="aBZuQ9AUU6MUSOwiELfQ-15">
          <mxGeometry relative="1" as="geometry">
            <Array as="points">
              <mxPoint x="136" y="-652" />
            </Array>
          </mxGeometry>
        </mxCell>
        <mxCell id="aBZuQ9AUU6MUSOwiELfQ-38" value="Cliente" style="shape=umlActor;verticalLabelPosition=bottom;verticalAlign=top;html=1;outlineConnect=0;fontSize=12;" vertex="1" parent="1">
          <mxGeometry x="60" y="-685" width="30" height="60" as="geometry" />
        </mxCell>
        <mxCell id="aBZuQ9AUU6MUSOwiELfQ-41" style="edgeStyle=orthogonalEdgeStyle;rounded=0;orthogonalLoop=1;jettySize=auto;html=1;fontSize=10;fillColor=#0050ef;strokeColor=#001DBC;" edge="1" parent="1" source="aBZuQ9AUU6MUSOwiELfQ-28" target="aBZuQ9AUU6MUSOwiELfQ-4">
          <mxGeometry relative="1" as="geometry" />
        </mxCell>
        <mxCell id="aBZuQ9AUU6MUSOwiELfQ-42" value="" style="swimlane;startSize=0;fontSize=10;" vertex="1" parent="1">
          <mxGeometry x="150" y="-170" width="330" height="496" as="geometry" />
        </mxCell>
        <mxCell id="aBZuQ9AUU6MUSOwiELfQ-43" value="" style="shape=image;verticalLabelPosition=bottom;labelBackgroundColor=default;verticalAlign=top;aspect=fixed;imageAspect=0;image=data:image/png,iVBORw0KGgoAAAANSUhEUgAAAPQAAAA9CAYAAACayESCAAAgAElEQVR4nO2deXBVV3rgf/fe9+59i1aENrQB2hASYt+EzWZWY8A2q8HuTCfpJJWk3eNJd2pqpmo6qepkMqmpSXU66Z4knU672za7MTZms7ExSOwIhEAS2iWEVrQ9SW+/984fD9TYaHvvgehm3q+KEird+53v3nu+s3znO98RbDabTogQIZ4LxGetQIgQIZ4cIYMOEeI5ImTQIUI8R4QMOkSI54iQQYcI8RwRMugQIZ4jQgYdIsRzRMigQ4R4jjA8k1Lb76GVXUcY6EO3hqPnzkOKTXgmqoQI8TwhjHekmHbqIOLZX6P39CC4PeiyEaInoK/6Q8RlG8ZTlRAhnjvGt4e+ehbhwP9C72pD8PajGyMRPL3QFgnNP0KLSUDMmzuuKoUI8Twxvj3095ajN9UiGK2w/c8hcSp6XSkc+QW47JC7BOFv9oybOiFCPG+MXw/d0Qy1xQhyJNrSLYhrvwXWcJi+AOpqEIqPwe0v0Pu6EcKjx02tECGeJ8bPyz3Q5/upedDTcn3GDAiRMejJ2aB5wOFAdzrGTaUQIZ43xs2gPVFxAOiSGeHip9DR4vu9qQah+FN0yYxuigz1ziFCBMG4DbnF8Ei0hVsRr34K1cXws3fQJ6RAew1CSwM47Ggb/wjRZB4vlUKEeO4YN4OWJBF91w/Q+20IFefg2mkEgwm8TlAl9NmrETZ/Z7zUCRHiuWTc16Epu45++RNoqAH7AHp4JOKUHFiwFjJnjKsqIUI8b4y/QQN6dwdCRwu62w0mM0JCMoRFjrcaIUI8dwQ85Nb7e6GnC8Hr8fteISwC0jIRlKc/X25qaqa5pZnWllZ6+3ye9sjwcGJiJhAfH8/kyWkYDP6/hoaGhiemY1JS0pA62O0OOjraB3+PjY3DYgnunVVX12A0GkaV19nZSX9/f1BlPSQsLIyYmJgxXTvS90pOTiItLW3U+1XVVyc9Hi8ZGenBKf+Ab36L0Z6ps7OTxrt3aWtrZ6Dfjt3pwGIyExs7gfiEBFKSU4Z999XVNQAYjQZkWSY2NhaA1tZ2kpMnjain3zVZu3MT4cpJaLkDzn7wqv6KAJMFzBb0vNWw6CWEp9A7X79RwsWLl2jvuE9frw1bnw2HwwmA2WzCarUQZg1nYmwsc2bPYPHixX4Z9nvvf4Db7UFACEpPu8PB9//iHeLiYh/7W09PD//803/BYjajaTr5+Xls3fp6UOX95Cc/Izo6ErvDwZtv7iJ/Rt6Q1126dJmioksYjVJQ5Xk8KqtWLWPFihUjXldeXkFh0XmaW1qH/V6REZHEJ8SzfNlScnKmDSmnpaWZPXsOEBERRl9/P9/61m5m5ucH9QwAH398lLKyckRRwONRefvtPx3yutbWVk5/cYaG+ga6e3rp7+/D7fLg9riRjTLh4VasYWFERUaxaNG8IeudKIoUF19j2bJlfPnlGWbNmgVAcfF1du7cPqKeY67BXq8Xw6m9CEWHoLEOwdGNrqkEOl4XRAkqy6DkBNrGP0fMCv6lA/T29nL06DGu37hJY2MjqqoiSRKapqHrPm0dDgednd0IAlBRQW1tDaWl5bzyyjpSU1PHVE5Z2R2cTieCEJxB9/TYcDiGXnv3eDwUF5cQFRWBpuk03m1k8eJFJCWN3EqPxPXrpcTFT8Bm62PjKy8Pe11rays3b5aimOSAywJwOJzMyJ8+7N+9Xi8nTpyisOgCDQ0NuN3uIb9XT08vd+/eo6y8goaGuxQsXsCmTRsfk5eSkkxXVyd19fWoqpc9e/aTO316QKOwhzQ2NvLpp8cZsNvxeNwULF5EVNTjndDVq9c4ceIUdyqrGBiw+xzBuj74HHbs9Np6AdA0nbtNdykvr2THjq1ERv5GXlLSJAqLioiNjcXucFJbVwdA3xhGTGN/yk9+Dcf+BaG7BXQdBBF9Uh5iAC241tOG0HMP2hsQ2uuh7T76n/wIYerwH34sdHV18R+//DXXr9/A6XQiSRKqVyUiIpz4+ATCwy1IkpGBgX4673fT3NqCQTLQ0tJKU1Mz7e1tvPXWbtLTp45altEgocmPVHY9MMOWjSN/AtlowGg0AmCz9bN//0HeeeftgMoCUBQZo9GIosiI4vBhCKIoYnikbCCgZ/QaRx7BHT36KZ8cPU5PTw+yUXnsewH09dlpa2ulu6cXRZKoqqqiva0NTYNXX/26USckJLB7907+6Z9+htVqpaKikqKi8yxbttRv3R+yf/9BBux2jEYDFouZXbt2oijK1665UVLC++/voaGxCaPRgCAIGCQjScmJREdHIklG+vv76Orsobm1BUWWaWlppa2tHYfDwXe+8weDQ3BFUZAf1C2r1Tc6AwgPDxtV17EZ9M0rSEd+DPY+UD3oWYsRClYjxGeCwf/YFKG/B73qKnrRSXD0I1ReRX/3h/Dffw2yyW954JvjvPfeHoqKLmA0GtB1iJkwgTlzZpOeMZWYCTGYLSYkScJhd9Bn66Omro7i4mJqautRZJmbpbf55S9/zTvvfJcJEyaMqVy320NBwSJm5OXh9Xr91tvtdo+5LEWRKTp/kaVLX2Du3Dl+lxUImqYRO3Eimza/gtfj//RKVVUyMoZuIEtLb/HRkY8ZGHD4elBBZ82aVeRMnzb4vQAcdiedXZ1UVFRw5sw5DAYDff39fPTREVJSkh57F0uWFHD69Bmqa2qRZSMHDn7IjBl5Y37Pj1JScpOLl66iKDL2ATubN20kLe3ro7iuri7e+7XPmBVFxul0sWDBXGbmzyRxUjxhYWGP1buiwvO0tXcginCusIhJiYls275lUObDaUJebt6gIff1PYEe2utVkQ78GGwdIBrRpy9B2P59mD4bwRjYcEwA9BmLEVJz0X/1t4AF4caXaFfPIRasDkjml2fOcPZcEUajAY/Hw7RpWbyyYQM5OdlERw8dfTYjP4+cnGxOnz5DUeF5zBYzpaW3OPThEb7zh98eU7ler5esrAzWrHkJVQ3AnwBI0thHObqus2fPPjIy0r82THtaaJpGeFg4a1avCvj5hsLrVTl46CP6+gaQZRlN09i+bQtLliwmLi5uyHtyp+eQEJ/AwUOH0TSNvv4BPtizl+nTczCbf+NgslgsvPHGNn74V3+D2Wyi6V4zx4+fYvfunX7p6HA42LvvALquo2kakyZNYu3ax+vnZ59/QVVVNRarBYfdwZq1q1i7dg2T01KH/LYz8vOYMnkyBw8dorHxHqIocvTYMebOm8PUqVMAyMrKHPz5UMZY3v/o3WtrI0Lp52CwohsVhF3/FWYuhACN+SFCTALCyq2w7HUEVw+6MQzhk58HJKurq5sjHx9FFAV0XSc1NYVdb+ygoGDRsMYMYLVamTN7Njt3bGPmrHzcbg+KSeHz019QXVPjtx6SJAX0b6xomoYsG6mprefUqc/81i9YAn2+oZ6xqamJ0pu3kGUZl8vFSyuXs379umGNGSAuLo7169exaeMGHHYHsmykqqqG6zdKHrs2Ly+PF18owOVyocgyp05+Rt2DuehYKSy8QEVFJbJsxOlwsn37FmJivt7LOxwOTp78HMWkoKoq2dmZbN3yGulTpwz7ba1WKwUFi9i9excGg+/99Nr6+Pjop4PXPLz3URljqSujGrRUfRtUO4LqRMtaDLlPcL+yUUZYu9sn32BGuH0O3E6/xVy5coW2ljYkScLr9fLGzh3k5Q3tvR2KlJRkdu3agdnsG+K5XC5Of/6F33o8TVRVZdq0LNxuD7Js5NjxE9TV1T9rtQLm1q1SNN3X4xgMBjZv3ojJpIxyF5hMCi+/vI7UtFRUVcVgMHL69OPfSpIktm3bMthz9w30c+jQ4THr19XVzeHDRzAYDLjdHnJzc1i8eNFj17W1tdPR0Y4kSbhcbjZt2jBio/Qoc+fM5sUXlww2OhfOX8Jms41Zx6EY1aD19mYQZdDciNkLgipsKIRJU0CO8nkC7f3odv/XPr888xWyouD1epmWncW8ef7PL7OzsnjxxQJcLrfv5V64NKz3+VngcrnY+MoGYh7MA3sfOMi8gSwb/hZQWVWDwWBA0zQmT04lPj5+zPeGh4ezYvmL2AfsgM7Vq8VDfqvU1BTWrV2D0+FEURSuXCkesjcfipMnP6O5uRmDQULXdXbv3jlkg9Pc3IIo/MaMHi4xjZUNG17G7Xbj9ar0dPdSU1Pr1/3fZFSDFkQBHi5OeVxBFTYkuga6+pvlHz+XgWw2G9XVtRgMEi6Xi+XLl/o1jH2UFcuX4/G4UVWV1rYOGhoaA5LzNPB4PKSmprJ50yu+CirLXLl6jWvXrj1r1QKip6cHQRBQVZXEhES/71+wYD5z581l3rw55M3IHdZhtH79WhISE1BVFVXT2Lt3/6gNdX19AydPnEIxKbhcLpYULCI3N3fIa+12+2CdFUURq9Xq13OkJCexaPECZs/OZ9HiBbjd/gdqPcroXu6EFN9eZTkSofQsXu/bGAzBBRs8il5TjuDpQzeGI1gjESzhft3f3NyMy+XCaDQiIJCTkxOwLqmpKSxauBDJIOB0enD+Nu3N1sHr9bB8xVLOFRZSXVMLCOzbd4CcnGlEREQ8aw39Qnlkyc/ldvt9/8PlKUkUUTUNq9Uy5HUTJ8awbdvr/OQnP8VisVBZWc3Zs4VDOrcecujDw9j6+jDKRiwW64jBPJL0mz7x4XqzP0iSxBs7dqBqGgDRUVF+y3iU0Z1i2fkgR6KLMjTcgMITQRX4KPqADT76qa+xcPeizVntt7Oto+P+4P9lRQloaeIhJpOJN3ZtZ/v2bbz55k5SUlIClvW0sFqt7Ny5HUmSMBoN1NTWc+Tjo89aLb+JjYsdDPoJJIxWkiSyMjNIT59KVmbGiD3jC0sKmJGfh8fjwWg0cPjIx7S3tw95bUlJCZcuXUExKTgdTtatW/3YMtWjRERGoD3wPquad1i5I/HwGbIyM4iNnej3/Y8y+pA7dhL6kq0I7l5AQPrwx/DFh+gPM5AEiN5YCfv+Ea5/hW6wguZBffWP/JbjcrkH5zAmRR6TY2UkMtLTyUhPJyszc8zxx+PNjBl5rFyxFKfDicmkcOz4yd85B1lmRgYetwdRFGlrax+MX34amEwmtm/bOuhxb21p5ZOjxx67zuFw8MGe/WiajqqqpKQks37dmhFlJyclP5iWgiRKnDlz9qk8w1gZW2DJ63+CVluM2FyN0FINB/4Bqi6ix6SBafTolW8i2Hug5jrcuOj73d2LvuY/IebN91uWT8CDFyqJAc+ff5eQJIlNmzZy7VoJPb09uJxO9uzdx1/+4PtPdDr0NJk2bRomk29VQRQlPtizj7e/+6dEBTnkHI7c6Tm8+IIv4ERRFE6fPsPyZUu/FhVYWHieiopKLBYzLpeLLVteHbVRnzgxhilTptDS0oKiKJz67DT5+TOYNi37qTzHaIzJoIXJ2ei7/hv6gf+DUHsbvaMR4VQduhIJJv/mvAA4bODsQUAHUUZfsQ22vfM7a4xGg3H0i54wiYmJbNq8gX/713/HYrVy+bLPQbZw4ZNfiXgaxMXFUlCwiLNnCzGZTZSU3GTPnv2sXLmc9PT0J94wSZLEq69uori4hAH7AC6Xk/37D/KDH/wFBoNER0cHHx4+gizLeDweZs6ayaJFjy9TDSV3w8tr+ed//r9YrFa6urrYs3c/69etZebMGV8LeBkPxhzLLRasBYOCfu4QenUZQtsdBEcXOLr8L1WT0MMmwKQpCLMKYPVbCHFJ/sv5LUAQBAYGBrh///7oF38DRVEIDw+gQXzA8mVLKSq6QFVVNUajgX379pOdnT3kxoFgcLqcAT0fwMSJQ88JHxpYWVkF3T3dyLLM6S/O0NrWRk7ONOLjYklNTSUuLjaod/QoycnJbNiwnl/96j0sVgtXrl7jxo0bzJs3l6OfHqe5uQWLxYyuiezYvmUwLmE0CgoWU3T+IjdLSjGZTdy6dZs+Wx9lZeWkpqQwKXkSkxITCQsLe+ojKP+2oCxYDmkZCLevwN0SNPsAYgCePV2UEeLTYHIu5M5HkIOb9/pDW1s7qjq2mGtZloetkA8xGg1cuXqNpnv3/NJD9WrMmZPP8uXL/brvUcLCwti1awc/+tHfIYoiNTX1HP30OG/6GeI4EqIo0tXdxQd79vnnxdV9S55vf/fPhr1kypTJ7Nq9g737DtDe3oFJUSgtvU1lZRXR0dEkJ01iwoRokpKSiIuLIyUliejo6KB6vZdeWsFXX52jta0VUZQ4eOgwisk3BDc9cIStXr2SadljHzI//A6qqnL7VhmyInO3qYnGu03ETIgmITGBuNg4JsbGkJw0icTERBITE55K7+33njIhPhnik8H9MjgGfOvI/iIrfi9PPSmOHPkYm60PURx5vVvTdLKyMobcovcoBoOBmppa7lRW+aWH2+UmMjIsKIMGmJGXx7KlL/DZ519iMps4dvwESwoWMWXK5KDkPkQURZxOF2fOnEP3Z7OspiOI4ogGDbBi+TLQdQqLLlBWVo6u+xxSHR0dtLe3o3pVwiPCiI2NJWlSIlHR0UzLziI/fwZhYf77b6KiInn99c38409+iqLI1NTUsn//IZxOB5IkMWFCNK++uslvudlZWezatZNTJz/j+o0b2Gz9GAwSXd3ddHZ1cdPr673j4mJJiI8nLi6eKVNSycvLG3IvfKAEvklUVhBH6FlVVUXShu4JBeP49cjf5OLFS3R2diONsj9W9XoQxzinF0UReYStiEOhqdoT8xls3ryR4uIS+vr7cDgc7Nt/kO+9/edjHjKOhiiKg1lOxoqm6RjG+HwrViwnNTWV4uLr1NbW0dnZSdM9X3yBZDDgcDhpbLxLXV0DOjolJTe5des2q1evCqjhWrhwPjPO5HLr1m1kWaai4g5GoxG73cH2bVuYNCmw/ebTc6YROzGGqelTaWxopKW1laamJgYGHAiigNer0tLSyr17zahelbi4OG7evM2SJYuZP//JhFQ/0ayfmq0bofo2NN1B7+8A9zBhiRYZPW4aTM5CmDy+3kCD0YjBaBxyL7Ag/CYA3i2Mzdnl9ark5uWQke5fqhuPx0tubuBBMI+SlJTEa69v5l//9d+xWMxcuXKVK1eusXTpkqBla5pGdFQ0L7xY4Od9ul/zxfT0qaSnT+XevXs0N7fQ0NBIR8d9Ojs76bh/n+bmVoQH36S5uYXGhrt0dNxn67bXyc7K8ks3s9nM9u1bKS+rAHyjLFVVmToljZdeGjmzymjExsayaeMGenp6fI1QfQMd7R10dnXS2tpGa2sbqqpilI309Pbw1VdnaWhswG4fCGrP9kOemEHrt67CucPodWVwrwqDoxuGm6oaQE/IQUhNQ5+1EpZtRjD7P3wKhPXr1jIwYB/yb4IgUFR0ns6usTv6PB4Ps2bN5JWXh8/+MR6sXLGMwsLzVFZWIkkShz/6iNzcaUGvpfsMOoqdO0ZOffOkSEpKIikpifnz59HX10dbWzvNzc00NjbR3tFB5Z07tHfcx2Q2cfVqMW6Ph7e/+6d+P2fu9BwKChZy9lwRiqLgcrrYvn3rE1s2i4qKIioqivz8GQ8y5HTS2NhE4927dHV2UVtXR01NHSaziYaGu7z3/h6io6PJzw8u8+2TMejic+iHfoxYegGMErrmBU1i2HRbAgjtVQit5WgVNxDaatC3/5dxMerXXts84t8rKsrp8MOjq+s6kig+8/Vfs9nM7t07+eu//hGCIFBbV8+x4yd4683dT0T+s3i+8PBwwsPDBxP9tbe3c+NGCV+dK6T8dgUms4kb10s4fuIUb+5+w2/5L7ywhM9Pf+kzaJeH+fMDjIMYBbPZTHJyMsnJyRSwCJvNRkVFBefPX+bsuXMoisL9+53s2buPrKzMwfX5QAjaoPW7NfD+3yHW3QBFQQuPQ5iWB1HDz0N0bz801EL1NQR7H8JHP0OzRCNs+26w6vx/TV7udFauWM7JU59hUhSOnzjFwoULycrMeNaqPRHi4uJYs2Y1ySnJ/PzffsHdpmafI/DYSV5ev9bvsF9FMQ1uClJVbdwarYiICBYsWEBmZhYut4vLl69gMpm4fbucsvIK5sz2b8fWowRv0Pt/7DNmSUGLS4G1vwfzV0HiCMn2BmzoFSXw+X/AxZPociTCgX9An7sKYWrg80odfTA+OFAe5m8CMASQXulZs2XLq9y4eZPurm6cDif79x/g+3/xTlCt/m8b03Ny2LFjG//z7/43ZrOJPpuNW7dus3Tpi89aNb+Ijo7iW2/tpqK8ArvDl4apqPB8UAYdVI3V77cgnv0A5AhAQ33tu4ibfh9hJGMGBGsE4twX4Vt/hZAzH0HzILjtaEff9VsHRZF9SQsBt9uL0xncFs8+Wz+iKKJpOuYgc2A/C+Li4nh180ZUVUVRFK5du8758xeetVpfw2bro/BcERcuXKKo6DxOp/9JLebOncuE6Gg0TcNgNFBxp/IpaDoyqqpy4cIlLly4ROG5Itra2vyWkZiYwJw5s/F4vBiNRirKK4NK9RScQZdeAnR0rwM9bTbC8tf8ul9ITIXtfwnuXnQlCvH8x37rEBs7EfVB5gu73U53d7ffMh7idLro6LzvM2hVDWrn1rNk+bKl5OfPwO32YDT6kuTdv9/5rNUaxGbr5ZfvvscHe/bx7rvv0dPT67cMg0EiMzN9cETW1ur/Lqdg0XXYf+AA73+wl3d/9T5l5eUByZmWk43q9T4I4ukOKmlFcAZdVwWiEcHTjzZvTWBzkOlzQJIRRBHhfhO6Y8Cv2+Pj4zE8WF7Sdd3vvFGP0trait3u2wOtqippqb992yfHgtlsZueObciyjCAItLS28emnx5+1WoNYrdbBwJGWllbuNjUFJCc83Iqu6wiCgMv1FJJvjILBIOF2u2ltbaWzs4s7FYGNEkyK4l/QzggEZdDCYNpaHTE6wH2csgkMjwxtXf4lFQgPjyA1JRlVVZFlhcLCooCHLJcuXUYQfEs1VmsYkyc/mWirZ0F2dhYrVy7H5XZjNpk4ceIUNbV1yPK4HTg6LOHhEYPHu8iKwtmz5wKS09LaNpjMPjLy2SR4yM7ORtP0B9ObGwwM+NchgS97iyj6OkNZNgTlAwrOoKNjQPOCwQp1twOSoXe2gevBkMsAgsW/pSuDQWLJkgJcThdGo4Hi6yWUl1f4rUdLS8vg1jq328OsOfnjkib3abLl9c0kJ03C6/Xi9ng4ePDD3wq/gMEgMXfu7MGEh1cuX6XJz166r6+fhoa7SJIBr9fL5MljO/HkSTNv3hy8Xg8IOu0d7Vy4cMlvGaWlpYPBLXHxsUF524Nz4+bMBrcb3WBBv/wJeutdv0Xopw+CIIHqQk+fFVCi/ReWFBAREYGmaWiazr79B/yqID09PRw69BEd9+8PRpCNtrH9d4EJEyawbevraJqOLBspLr7+TLZ6DsWKFcseOB81XG4P+/YdpKtr7P6Pc+cKBw/T0zSNaUGkngqG3OnTiYuPQ9NUTCYThz/62K9kDdXVvmOYjEYDLreb2bNmBqVPcD105gz0xFwE3YPY3QyHfox+b2xzWN1hR7/8JcKJd9GVaLD3om0O7IiXpKRJrF+3ZrDFL71Vxr59hygtvT3i3EpVNapravjww484/YVvt43L5WbhgrnkDZMUbigM0rMfxg7HkiUFzJqV78vsIoogjPvpwUOSkZHOwoXzcLncmEwKZ88VcejQR9TVj5x5xeVycenSFT755BjKg0yvkyenkT519OOLngaRkZFs3vQKbrfPqdXc3MIHe/dRUlIyat0rKyvng737cHs8aJqGIsu88EJw4brB1UTFBNv+M/z8B6BEIXz+PrrXgz5nFcQkI0jDtBcDvVBbjH7mJKKtHdAhY0HAp2YAbHhlPZVVVZSU3MJsNnH2XCEd9+8zf95cJk9JIyZmAibF1/u73S66u3u4d6+F6zeKuXy5GIvFjNvlfpCje+eYDzczGAzU1zdwrvB8QHqrXg/z5s0NaOfQWDAYDOzYvpXKiircXveI51kNhSiK9PX3B/x8uq6RmprC5G8cA2swGNi5YxuNDXdpaW3FYjFz9NNjdHZ3Mnf2bBITE4mKihz8Dk6Xk87OLurrGvjiiy/puH8fSRIREHj9tc1BH7MbDC+tXMn14htcv34Tk1mhuPgGtl4bixctIiNjKpFRkV+rezZbP41373LhwgVKb5VhNplwOJysXbtqzIclDkfQXYuwchP6nYtw+SSC0YpwZj/ajfOQlAnDzAUEWw9C3VUwhoNXR0+bivDt/xHUsbKRkZF8+9vf4uc/f5eysjIURaa6uoby8gomT04lKSmJiPAwNF3HbnfQ1tZGba2vNzCZFAYGBsjMzGDHjm1+vVRZNnL+wkWuXA0sne5A/wB///dTRjfoIA65zMrKZO3aVRw4eBiL1b+KL4oinV2d/OIXvwzopE2v18OmTa88ZtAAqampvPHGdvbs3c+9phZMJoUrl69x9UoxWZkZxCfED+7y6uvvp/leC/X1DZhMii/rlA4rVy4LulcLFovFzO/93ps4nb+gvLwCRZFpaGikqqqGrKwMJsZOJPJBkob+ATtdnV1UVlUDvuynbpebGXm5bN+2ZaRixkTwY0XFDH/wQwiLgtJzcK8KobcFoasexKENWhcMCMhgiUDPnIK+4Y8RZo6e7mU00tLS+OM//gP27TtIZVUV7e0dyLKRe/eauXevBV33zbFFUUAURSRJRPWqhFmtZGVnsfX1zcycObY5jKrpeDweBEHA6/UGFBwB0NM98hqsx+PF6/XiCTKh/isbX6aw6AIdHR2Ikoiqamja8HvZNU1DU9XBA/hsNpvfvTuAy+ka8RC/JUsKAJ1jxz6nobEOr8eLKIlUVlVxp7Lya5F7kiQiy0a8Hi+JkxKYkZfHW2/tCvioWE1TUVUNr9cbUCrhR/HVvd/ngw/2U1tXR1dnF4oiU1/fQG3t16ehgiA8qDcqUVERZGZksnPn1ieSlPKJTP6E8Cj4wx+inz2GcP0odNsmm+gAAAH6SURBVHeg9/chiMOk5DUI6JZomDITlm1GTH5y85/k5CS+970/47PPT3O9uITunm76+/sZGBjA5fJ9NKPBgNliITw8jIkxE8jKymLVqpV+7bRJTU3B5XQiBFDJH8UW0//1I1sfwWg0MjVjKhHhYdj6+pGCmKtHRUWxa9d2Pjx8BKPRiNPpxmIZOpc1+EY8U6ZOHla3seLxeEZ9r0uWLCEtbTKfn/6C+roGunt66Ovrw+1y4XkQcGEwGLBaLURFRTMxJob582ezbNmyoHQzGg2kp6djMsmERwS/yyotLY3vfe/POPXZacpu36arp5fenl4cdjueB42aosgoiomwMCvRURPIy8th3bo1I34LfxBsNtsT95LoTbXone2Iw/QAeng4xKf4GoKniN1up7KqiubmFtra2h8cneIbJk+MjSUxMYFp2VkBbZm7UTK2I1VGQ1U1cqZlD/lB7XY75RV3fCOJEa4bK16vl5KbpYPy0lJTmThx6F6hvr6ezq7uryWSDwRV1YiPiyM5eWw541paWqiurqGttY3unh7cbg+iJGK2WIiLnUhaairZ2VlBHeD+kJ6eHmpq6wbfx9w5s4OW+U3ZjY13ud/RMXgihsVqISoqKqi6NxJPxaBDhAjxbPjd204UIkSIYQkZdIgQzxEhgw4R4jkiZNAhQjxH/D/atKtr1qwtygAAAABJRU5ErkJggg==;" vertex="1" parent="aBZuQ9AUU6MUSOwiELfQ-42">
          <mxGeometry x="17.28" y="10" width="80" height="20" as="geometry" />
        </mxCell>
        <mxCell id="aBZuQ9AUU6MUSOwiELfQ-44" value="" style="swimlane;startSize=0;fontSize=10;" vertex="1" parent="aBZuQ9AUU6MUSOwiELfQ-42">
          <mxGeometry x="17.28" y="46" width="302.72" height="434" as="geometry" />
        </mxCell>
        <mxCell id="aBZuQ9AUU6MUSOwiELfQ-45" style="edgeStyle=orthogonalEdgeStyle;rounded=0;orthogonalLoop=1;jettySize=auto;html=1;entryX=1;entryY=0.5;entryDx=0;entryDy=0;fontSize=11;" edge="1" parent="aBZuQ9AUU6MUSOwiELfQ-44" source="aBZuQ9AUU6MUSOwiELfQ-46" target="aBZuQ9AUU6MUSOwiELfQ-47">
          <mxGeometry relative="1" as="geometry" />
        </mxCell>
        <mxCell id="aBZuQ9AUU6MUSOwiELfQ-46" value="&lt;font style=&quot;font-size: 11px;&quot;&gt;Contact&lt;br&gt;List&lt;/font&gt;" style="shape=cylinder3;whiteSpace=wrap;html=1;boundedLbl=1;backgroundOutline=1;size=15;fontSize=13;" vertex="1" parent="aBZuQ9AUU6MUSOwiELfQ-44">
          <mxGeometry x="195.72" y="44" width="60" height="80" as="geometry" />
        </mxCell>
        <mxCell id="aBZuQ9AUU6MUSOwiELfQ-47" value="Camapaña EPA&lt;br&gt;MAP" style="shape=process;whiteSpace=wrap;html=1;backgroundOutline=1;fontSize=11;" vertex="1" parent="aBZuQ9AUU6MUSOwiELfQ-44">
          <mxGeometry x="25.72" y="54" width="120" height="60" as="geometry" />
        </mxCell>
        <mxCell id="aBZuQ9AUU6MUSOwiELfQ-48" style="edgeStyle=orthogonalEdgeStyle;rounded=0;orthogonalLoop=1;jettySize=auto;html=1;fontSize=11;" edge="1" parent="aBZuQ9AUU6MUSOwiELfQ-44" source="aBZuQ9AUU6MUSOwiELfQ-49" target="aBZuQ9AUU6MUSOwiELfQ-47">
          <mxGeometry relative="1" as="geometry" />
        </mxCell>
        <mxCell id="aBZuQ9AUU6MUSOwiELfQ-49" value="Regla Horaria" style="rounded=1;whiteSpace=wrap;html=1;fontSize=11;" vertex="1" parent="aBZuQ9AUU6MUSOwiELfQ-44">
          <mxGeometry x="25.72" y="204" width="120" height="36" as="geometry" />
        </mxCell>
        <mxCell id="aBZuQ9AUU6MUSOwiELfQ-50" value="&lt;font style=&quot;font-size: 13px;&quot;&gt;&amp;nbsp; &amp;nbsp; &amp;nbsp; &amp;nbsp; &amp;nbsp; &amp;nbsp; &amp;nbsp;&lt;b&gt;outbound&lt;/b&gt;&lt;/font&gt;" style="text;html=1;align=center;verticalAlign=middle;resizable=0;points=[];autosize=1;strokeColor=none;fillColor=none;fontSize=10;" vertex="1" parent="1">
          <mxGeometry x="128" y="-129" width="130" height="30" as="geometry" />
        </mxCell>
        <mxCell id="aBZuQ9AUU6MUSOwiELfQ-52" style="edgeStyle=orthogonalEdgeStyle;rounded=0;orthogonalLoop=1;jettySize=auto;html=1;fontSize=11;" edge="1" parent="1" source="aBZuQ9AUU6MUSOwiELfQ-29" target="aBZuQ9AUU6MUSOwiELfQ-38">
          <mxGeometry relative="1" as="geometry" />
        </mxCell>
        <mxCell id="aBZuQ9AUU6MUSOwiELfQ-53" style="edgeStyle=orthogonalEdgeStyle;rounded=0;orthogonalLoop=1;jettySize=auto;html=1;entryX=0.5;entryY=0;entryDx=0;entryDy=0;entryPerimeter=0;fontSize=11;" edge="1" parent="1" source="aBZuQ9AUU6MUSOwiELfQ-54" target="aBZuQ9AUU6MUSOwiELfQ-7">
          <mxGeometry relative="1" as="geometry" />
        </mxCell>
        <mxCell id="aBZuQ9AUU6MUSOwiELfQ-54" value="&lt;font style=&quot;font-size: 10px;&quot;&gt;GUARDA ENCUESTA&amp;nbsp;&lt;br&gt;EPA MAP&lt;br&gt;&lt;/font&gt;" style="sketch=0;points=[[0,0,0],[0.25,0,0],[0.5,0,0],[0.75,0,0],[1,0,0],[0,1,0],[0.25,1,0],[0.5,1,0],[0.75,1,0],[1,1,0],[0,0.25,0],[0,0.5,0],[0,0.75,0],[1,0.25,0],[1,0.5,0],[1,0.75,0]];outlineConnect=0;fontColor=#232F3E;gradientColor=#F78E04;gradientDirection=north;fillColor=#D05C17;strokeColor=#ffffff;dashed=0;verticalLabelPosition=bottom;verticalAlign=top;align=center;html=1;fontSize=12;fontStyle=0;aspect=fixed;shape=mxgraph.aws4.resourceIcon;resIcon=mxgraph.aws4.lambda;" vertex="1" parent="1">
          <mxGeometry x="610" y="-70" width="40" height="40" as="geometry" />
        </mxCell>
        <mxCell id="aBZuQ9AUU6MUSOwiELfQ-55" style="edgeStyle=orthogonalEdgeStyle;rounded=0;orthogonalLoop=1;jettySize=auto;html=1;fontSize=11;entryX=1;entryY=0.75;entryDx=0;entryDy=0;entryPerimeter=0;" edge="1" parent="1" source="aBZuQ9AUU6MUSOwiELfQ-36" target="aBZuQ9AUU6MUSOwiELfQ-54">
          <mxGeometry relative="1" as="geometry">
            <mxPoint x="655" y="-10" as="targetPoint" />
            <Array as="points">
              <mxPoint x="735" y="-40" />
            </Array>
          </mxGeometry>
        </mxCell>
        <mxCell id="aBZuQ9AUU6MUSOwiELfQ-56" style="edgeStyle=orthogonalEdgeStyle;rounded=0;orthogonalLoop=1;jettySize=auto;html=1;fontSize=11;" edge="1" parent="1" source="aBZuQ9AUU6MUSOwiELfQ-47" target="aBZuQ9AUU6MUSOwiELfQ-31">
          <mxGeometry relative="1" as="geometry" />
        </mxCell>
        <mxCell id="aBZuQ9AUU6MUSOwiELfQ-77" style="edgeStyle=orthogonalEdgeStyle;rounded=0;orthogonalLoop=1;jettySize=auto;html=1;entryX=0.65;entryY=0.988;entryDx=0;entryDy=0;entryPerimeter=0;" edge="1" parent="1" source="aBZuQ9AUU6MUSOwiELfQ-73" target="aBZuQ9AUU6MUSOwiELfQ-46">
          <mxGeometry relative="1" as="geometry" />
        </mxCell>
        <mxCell id="aBZuQ9AUU6MUSOwiELfQ-80" style="edgeStyle=orthogonalEdgeStyle;rounded=0;orthogonalLoop=1;jettySize=auto;html=1;entryX=1;entryY=0.5;entryDx=0;entryDy=0;entryPerimeter=0;" edge="1" parent="1" source="aBZuQ9AUU6MUSOwiELfQ-78" target="aBZuQ9AUU6MUSOwiELfQ-4">
          <mxGeometry relative="1" as="geometry" />
        </mxCell>
      </root>
    </mxGraphModel>
  </diagram>
</mxfile>
